PathFileType        4      (X/Y/Z)      C:\Users\pc\Desktop\IMUTRC\Sujet_02\Sujet_02_Tpose.trc         
DataRate	CameraRate	NumFrames	NumMarkers	Units	OrigDataRate	OrigDataStartFrame	OrigNumFrames
60.0	60.0	4	64	mm	60.0	59	155
Frame#	Time	pHipOrigin			pRightASI			pLeftASI			pRightCSI			pLeftCSI			pRightIschialTub			pLeftIschialTub			pSacrum			pL5SpinalProcess			pL3SpinalProcess			pT12SpinalProcess			pIJ			pT4SpinalProcess			pT8SpinalProcess			pPX			pC7SpinalProcess			pTopOfHead			pRightAuricularis			pLeftAuricularis			pBackOfHead			pRightAcromion			pLeftAcromion			pRightArmLatEpicondyle			pRightArmMedEpicondyle			pLeftArmLatEpicondyle			pLeftArmMedEpicondyle			pRightUlnarStyloid			pRightRadialStyloid			pRightOlecranon			pLeftUlnarStyloid			pLeftRadialStyloid			pLeftOlecranon			pRightTopOfHand			pRightPinky			pRightBallHand			pLeftTopOfHand			pLeftPinky			pLeftBallHand			pRightGreaterTrochanter			pRightKneeLatEpicondyle			pRightKneeMedEpicondyle			pRightPatella			pLeftGreaterTrochanter			pLeftKneeLatEpicondyle			pLeftKneeMedEpicondyle			pLeftPatella			pRightTibialTub			pRightLatMalleolus			pRightMedMalleolus			pLeftTibialTub			pLeftLatMalleolus			pLeftMedMalleolus			pRightHeelFoot			pRightFirstMetatarsal			pRightFifthMetatarsal			pRightPivotFoot			pRightHeelCenter			pRightToe			pLeftHeelFoot			pLeftFirstMetatarsal			pLeftFifthMetatarsal			pLeftPivotFoot			pLeftHeelCenter			pLeftToe			
		X1	Y1	Z1	X2	Y2	Z2	X3	Y3	Z3	X4	Y4	Z4	X5	Y5	Z5	X6	Y6	Z6	X7	Y7	Z7	X8	Y8	Z8	X9	Y9	Z9	X10	Y10	Z10	X11	Y11	Z11	X12	Y12	Z12	X13	Y13	Z13	X14	Y14	Z14	X15	Y15	Z15	X16	Y16	Z16	X17	Y17	Z17	X18	Y18	Z18	X19	Y19	Z19	X20	Y20	Z20	X21	Y21	Z21	X22	Y22	Z22	X23	Y23	Z23	X24	Y24	Z24	X25	Y25	Z25	X26	Y26	Z26	X27	Y27	Z27	X28	Y28	Z28	X29	Y29	Z29	X30	Y30	Z30	X31	Y31	Z31	X32	Y32	Z32	X33	Y33	Z33	X34	Y34	Z34	X35	Y35	Z35	X36	Y36	Z36	X37	Y37	Z37	X38	Y38	Z38	X39	Y39	Z39	X40	Y40	Z40	X41	Y41	Z41	X42	Y42	Z42	X43	Y43	Z43	X44	Y44	Z44	X45	Y45	Z45	X46	Y46	Z46	X47	Y47	Z47	X48	Y48	Z48	X49	Y49	Z49	X50	Y50	Z50	X51	Y51	Z51	X52	Y52	Z52	X53	Y53	Z53	X54	Y54	Z54	X55	Y55	Z55	X56	Y56	Z56	X57	Y57	Z57	X58	Y58	Z58	X59	Y59	Z59	X60	Y60	Z60	X61	Y61	Z61	X62	Y62	Z62	X63	Y63	Z63	X64	Y64	Z64	
59	0.967	-4418.87146	1100.4552200000005	-6470.70431	-4331.31431	1190.5469200000005	-6324.85252	-4366.33717	1222.3439900000005	-6609.87411	-4381.77488	1263.1272000000004	-6336.83403	-4410.57658	1289.1639300000004	-6570.7038	-4470.25369	1032.7136300000004	-6411.71844	-4484.53933	1045.8472000000004	-6528.76853	-4489.60843	1121.4228500000004	-6459.64446	-4451.35978	1218.8877900000005	-6454.34495	-4437.07414	1333.8641600000005	-6451.11916	-4433.61793	1439.8544100000004	-6450.42792	-4257.12114	1645.3833100000004	-6471.39556	-4414.72402	1638.2404900000004	-6458.03157	-4428.77925	1545.3838200000005	-6452.96247	-4271.17637	1517.7341900000004	-6464.94398	-4403.20334	1692.8485100000005	-6459.41405	-4346.06078	1913.1238800000006	-6491.90236	-4324.17149	1834.0920300000005	-6420.24374	-4358.2727	1818.1934900000006	-6543.97583	-4390.06977	1825.1059000000005	-6468.63059	-4385.4615	1683.4015500000005	-6257.11093	-4413.11113	1674.4154200000005	-6662.40841	-4383.61819	1559.2086300000005	-5988.67912	-4332.9272	1521.6512200000004	-6003.42559	-4361.26807	1527.6419800000006	-6919.31954	-4302.74302	1510.8217900000004	-6897.19983	-4289.14862	1488.2412600000005	-5721.86021	-4312.18998	1541.2363800000005	-5712.41325	-4350.20822	1516.3517100000004	-6007.80345	-4264.72479	1447.2276400000005	-7178.5348	-4302.05178	1489.8541500000003	-7192.82045	-4317.25908	1500.2227600000006	-6894.43487	-4293.52648	1518.1950200000003	-5529.9257	-4265.18561	1489.1629100000005	-5611.49211	-4277.16712	1509.6697200000006	-5684.76362	-4260.80775	1458.0570800000005	-7371.39096	-4234.31019	1442.8497800000005	-7285.67712	-4256.4299	1466.1215500000005	-7215.8618	-4405.73789	1056.4462200000005	-6296.05083	-4443.52572	610.8263800000003	-6326.23501	-4445.59944	610.1351400000003	-6412.87051	-4396.06052	609.6743100000003	-6373.7002	-4450.20771	1081.3308900000004	-6644.20573	-4477.62693	634.0981500000005	-6627.84637	-4456.8897	629.2594600000004	-6543.74542	-4419.56271	631.5636000000004	-6594.66682	-4383.61819	570.0431700000004	-6373.46979	-4454.35515	145.3909600000004	-6333.83865	-4455.73764	144.6997200000004	-6402.27148	-4408.27244	591.0108100000004	-6599.73591	-4493.75588	169.1235600000004	-6638.21498	-4477.39651	165.4369400000004	-6571.85587	-4511.26731	32.02749000000039	-6393.51577	-4326.70604	9.446960000000391	-6396.05032	-4346.98243	0.46083000000038643	-6311.02771	-4312.65081	1.3824800000003887	-6349.27636	-4469.79286	24.654250000000392	-6384.29923	-4230.62358	1.1520700000003876	-6330.38245	-4556.65878	66.3591100000004	-6568.63008	-4385.23108	7.373230000000405	-6610.56535	-4426.2447	7.8340600000004095	-6688.44514	-4384.30943	-0.46082999999959223	-6659.41303	-4520.71426	51.382230000000405	-6587.52399	-4309.88585	0.6912400000004101	-6698.58334	
60	0.983	-4418.87146	1100.4552200000005	-6470.70431	-4331.31431	1190.5469200000005	-6324.85252	-4366.33717	1222.3439900000005	-6610.10452	-4381.77488	1263.1272000000004	-6337.06444	-4410.57658	1289.1639300000004	-6570.7038	-4470.25369	1032.7136300000004	-6411.94885	-4484.53933	1045.8472000000004	-6528.76853	-4489.60843	1121.4228500000004	-6459.64446	-4451.35978	1218.8877900000005	-6454.34495	-4437.07414	1333.8641600000005	-6451.11916	-4433.61793	1439.8544100000004	-6450.65833	-4257.12114	1645.3833100000004	-6471.39556	-4414.72402	1638.2404900000004	-6458.03157	-4428.77925	1545.3838200000005	-6453.19288	-4271.17637	1517.7341900000004	-6465.17439	-4403.20334	1692.8485100000005	-6459.64446	-4346.06078	1913.1238800000006	-6491.90236	-4324.17149	1834.0920300000005	-6420.24374	-4358.2727	1818.1934900000006	-6543.97583	-4390.06977	1825.1059000000005	-6468.63059	-4385.4615	1683.4015500000005	-6257.34135	-4413.11113	1674.4154200000005	-6662.63882	-4383.38777	1559.4390500000004	-5988.67912	-4332.69679	1521.8816400000005	-6003.42559	-4361.49849	1527.4115600000005	-6919.31954	-4302.97344	1510.5913700000006	-6897.19983	-4289.14862	1488.4716700000004	-5721.86021	-4311.95957	1541.4667900000004	-5712.41325	-4350.20822	1516.5821200000005	-6007.80345	-4264.9552	1446.9972300000004	-7178.5348	-4302.2822	1489.6237400000005	-7192.82045	-4317.25908	1499.9923500000004	-6894.43487	-4293.29607	1518.4254300000002	-5529.9257	-4265.18561	1489.1629100000005	-5611.49211	-4276.9367	1509.6697200000006	-5684.76362	-4260.80775	1457.8266600000004	-7371.39096	-4234.31019	1442.6193700000003	-7285.67712	-4256.4299	1466.1215500000005	-7215.8618	-4405.73789	1056.4462200000005	-6296.05083	-4443.52572	610.5959600000003	-6326.46542	-4445.59944	610.1351400000003	-6412.87051	-4396.06052	609.6743100000003	-6373.7002	-4450.20771	1081.3308900000004	-6644.43615	-4477.85734	634.0981500000005	-6627.84637	-4457.12012	629.2594600000004	-6543.97583	-4419.56271	631.5636000000004	-6594.66682	-4383.61819	570.0431700000004	-6373.46979	-4454.35515	145.3909600000004	-6333.83865	-4455.73764	144.6997200000004	-6402.27148	-4408.27244	591.0108100000004	-6599.73591	-4493.75588	169.1235600000004	-6638.21498	-4477.62693	165.20653000000038	-6572.08629	-4511.26731	32.02749000000039	-6393.51577	-4326.70604	9.446960000000391	-6396.05032	-4346.98243	0.46083000000038643	-6311.02771	-4312.65081	1.3824800000003887	-6349.27636	-4469.79286	24.654250000000392	-6384.29923	-4230.62358	1.1520700000003876	-6330.38245	-4556.65878	66.3591100000004	-6568.63008	-4385.23108	7.373230000000405	-6610.56535	-4426.2447	7.8340600000004095	-6688.44514	-4384.30943	-0.46082999999959223	-6659.41303	-4520.71426	51.382230000000405	-6587.52399	-4309.88585	0.6912400000004101	-6698.58334	
61	1.0	-4418.87146	1100.4552200000005	-6470.70431	-4331.31431	1190.5469200000005	-6325.08294	-4366.56758	1222.3439900000005	-6610.10452	-4381.77488	1263.1272000000004	-6337.06444	-4410.57658	1289.1639300000004	-6570.7038	-4470.25369	1032.7136300000004	-6411.94885	-4484.53933	1045.8472000000004	-6528.76853	-4489.60843	1121.4228500000004	-6459.64446	-4451.35978	1218.8877900000005	-6454.34495	-4437.07414	1333.8641600000005	-6451.34957	-4433.61793	1439.6239900000005	-6450.65833	-4257.35155	1645.3833100000004	-6471.39556	-4414.72402	1638.2404900000004	-6458.03157	-4429.00966	1545.3838200000005	-6453.19288	-4271.17637	1517.7341900000004	-6465.17439	-4403.20334	1692.8485100000005	-6459.64446	-4346.06078	1913.1238800000006	-6492.13278	-4324.17149	1834.0920300000005	-6420.24374	-4358.2727	1818.1934900000006	-6544.20624	-4390.30018	1825.1059000000005	-6468.63059	-4385.4615	1683.6319600000004	-6257.34135	-4413.11113	1674.4154200000005	-6662.63882	-4383.38777	1559.6694600000005	-5988.67912	-4332.69679	1522.1120500000004	-6003.42559	-4361.49849	1527.4115600000005	-6919.31954	-4302.97344	1510.5913700000006	-6897.19983	-4288.91821	1488.4716700000004	-5721.86021	-4311.72915	1541.6972000000005	-5712.41325	-4349.97781	1516.8125400000004	-6007.80345	-4265.18561	1446.7668100000005	-7178.5348	-4302.51261	1489.3933200000004	-7192.82045	-4317.25908	1499.9923500000004	-6894.43487	-4293.06565	1518.4254300000002	-5529.9257	-4264.9552	1489.3933200000004	-5611.49211	-4276.70629	1509.9001300000004	-5684.76362	-4260.80775	1457.5962500000005	-7371.39096	-4234.31019	1442.3889500000005	-7285.67712	-4256.66031	1465.8911400000004	-7215.8618	-4405.73789	1056.4462200000005	-6296.28124	-4443.2953	610.5959600000003	-6326.46542	-4445.59944	610.1351400000003	-6412.87051	-4396.06052	609.6743100000003	-6373.93061	-4450.20771	1081.3308900000004	-6644.43615	-4477.85734	634.0981500000005	-6627.84637	-4457.12012	629.2594600000004	-6543.97583	-4419.56271	631.5636000000004	-6594.66682	-4383.61819	570.0431700000004	-6373.46979	-4454.35515	145.3909600000004	-6333.83865	-4455.73764	144.6997200000004	-6402.27148	-4408.27244	591.0108100000004	-6599.73591	-4493.75588	169.1235600000004	-6638.21498	-4477.62693	165.4369400000004	-6572.08629	-4511.26731	32.02749000000039	-6393.51577	-4326.70604	9.446960000000391	-6396.05032	-4346.98243	0.46083000000038643	-6311.02771	-4312.65081	1.3824800000003887	-6349.27636	-4469.79286	24.654250000000392	-6384.29923	-4230.62358	1.1520700000003876	-6330.38245	-4556.65878	66.3591100000004	-6568.63008	-4385.23108	7.373230000000405	-6610.56535	-4426.2447	7.8340600000004095	-6688.44514	-4384.30943	-0.46082999999959223	-6659.41303	-4520.71426	51.382230000000405	-6587.52399	-4309.88585	0.6912400000004101	-6698.58334	
62	1.017	-4418.87146	1100.4552200000005	-6470.93473	-4331.31431	1190.5469200000005	-6325.08294	-4366.56758	1222.3439900000005	-6610.10452	-4381.77488	1263.1272000000004	-6337.06444	-4410.57658	1289.3943400000005	-6570.7038	-4470.25369	1032.7136300000004	-6412.17927	-4484.76975	1045.8472000000004	-6528.99895	-4489.60843	1121.4228500000004	-6459.87488	-4451.35978	1218.8877900000005	-6454.34495	-4437.07414	1333.8641600000005	-6451.34957	-4433.61793	1439.6239900000005	-6450.65833	-4257.35155	1645.3833100000004	-6471.62597	-4414.72402	1638.2404900000004	-6458.03157	-4429.00966	1545.3838200000005	-6453.19288	-4271.17637	1517.7341900000004	-6465.17439	-4403.20334	1692.8485100000005	-6459.64446	-4346.06078	1913.1238800000006	-6492.13278	-4324.17149	1834.0920300000005	-6420.47416	-4358.2727	1818.1934900000006	-6544.20624	-4390.30018	1825.1059000000005	-6468.63059	-4385.4615	1683.6319600000004	-6257.34135	-4413.34154	1674.4154200000005	-6662.63882	-4383.38777	1559.8998800000004	-5988.67912	-4332.69679	1522.3424600000005	-6003.42559	-4361.7289	1527.4115600000005	-6919.31954	-4303.20385	1510.5913700000006	-6897.19983	-4288.91821	1488.7020800000005	-5721.86021	-4311.49874	1541.9276200000004	-5712.41325	-4349.97781	1517.0429500000005	-6007.80345	-4265.41603	1446.5364000000004	-7178.5348	-4302.97344	1489.1629100000005	-7193.05086	-4317.48949	1499.9923500000004	-6894.43487	-4292.83524	1518.8862600000002	-5529.9257	-4264.9552	1489.3933200000004	-5611.49211	-4276.70629	1510.1305400000006	-5684.76362	-4261.03817	1457.1354200000005	-7371.39096	-4234.54061	1442.1585400000004	-7285.67712	-4256.89072	1465.4303100000004	-7215.8618	-4405.50748	1056.4462200000005	-6296.28124	-4443.52572	610.5959600000003	-6326.46542	-4445.59944	609.9047200000003	-6413.10092	-4396.06052	609.6743100000003	-6373.93061	-4450.20771	1081.3308900000004	-6644.66656	-4477.85734	634.0981500000005	-6627.84637	-4457.12012	629.2594600000004	-6543.97583	-4419.56271	631.5636000000004	-6594.89723	-4383.61819	570.0431700000004	-6373.7002	-4454.35515	145.3909600000004	-6333.83865	-4455.96805	144.6997200000004	-6402.27148	-4408.27244	591.0108100000004	-6599.96633	-4493.75588	169.1235600000004	-6638.44539	-4477.62693	165.4369400000004	-6572.08629	-4511.26731	32.02749000000039	-6393.51577	-4326.70604	9.446960000000391	-6396.05032	-4346.98243	0.46083000000038643	-6311.02771	-4312.65081	1.3824800000003887	-6349.27636	-4469.79286	24.654250000000392	-6384.29923	-4230.62358	1.1520700000003876	-6330.38245	-4556.65878	66.3591100000004	-6568.63008	-4385.23108	7.373230000000405	-6610.56535	-4426.2447	7.8340600000004095	-6688.44514	-4384.30943	-0.46082999999959223	-6659.41303	-4520.71426	51.382230000000405	-6587.52399	-4309.88585	0.6912400000004101	-6698.58334	
